# xmcd CD database file
#
# Track frame offsets:
#	150
#	13008
#	29136
#	47967
#	65397
#	86944
#	101555
#	117373
#	138538
#	150925
#	169801
#
# Disc length: 2316 seconds
#
# Revision: 0
# Processed by: cddbd v1.5.2PL0 Copyright (c) Steve Scherf et al.
# Submitted via: CDex 1.51
#
DISCID=96090a0b
DTITLE=Sandra Luz - 8 meditações práticas
DYEAR=1900
DGENRE=New Age
TTITLE0=Introdução
TTITLE1=Preparação
TTITLE2=Meitação da cor vermelha
TTITLE3=Meditação da cor laranja
TTITLE4=Meditação da cor amarela
TTITLE5=Meditação da cor verde
TTITLE6=Meditação da cor azul clara
TTITLE7=Meditação da cor azul escura
TTITLE8=Meditação da cor violeta
TTITLE9=Meditação da cor rosa
TTITLE10=Encerramento
EXTD=
EXTT0=
EXTT1=
EXTT2=
EXTT3=
EXTT4=
EXTT5=
EXTT6=
EXTT7=
EXTT8=
EXTT9=
EXTT10=
PLAYORDER=
